<svg xmlns="http://www.w3.org/2000/svg" width="28" height="28" viewBox="0 0 28 28">
    <defs>
        <style>
            .cls-1{fill:none}.cls-3{fill:#ed5176}.cls-4{fill:#ba365f}.cls-5{fill:#f9aa4b}.cls-6{fill:#ce675d}.cls-12{fill:#253342}
        </style>
    </defs>
    <g id="Interior_Designers" transform="translate(-25 -284)">
        <g id="Group_15071">
            <path id="Rectangle_91" d="M0 0h28v28H0z" class="cls-1" transform="translate(25 284)"/>
            <path id="Rectangle_91-2" d="M0 0h28v28H0z" class="cls-1" transform="translate(25 284)"/>
            <g id="furniture" transform="translate(27 288.502)">
                <path id="Path_14061" fill="#ff76a4" d="M59.635 8.012a24.206 24.206 0 0 0 7.333 0 1.954 1.954 0 0 1 2.045 2.045v10.68H57.59v-10.68a1.954 1.954 0 0 1 2.045-2.045zm0 0" transform="translate(-54.89 -7.146)"/>
                <path id="Path_14062" d="M249.4 8.008l-.406.057a2.107 2.107 0 0 1 1.35 1.988v10.68h1.1V10.054a1.954 1.954 0 0 0-2.044-2.046zm0 0" class="cls-3" transform="translate(-237.321 -7.143)"/>
                <path id="Path_14063" d="M23.62 110.036a2.013 2.013 0 0 0-2.054-2.013 2.039 2.039 0 0 0-1.971 2.052v4.309a.692.692 0 0 1-.692.692h-6.685a.692.692 0 0 1-.692-.692v-4.309a2.039 2.039 0 0 0-1.971-2.052 2.013 2.013 0 0 0-.89 3.837v4.675a1.4 1.4 0 0 0 1.4 1.4h10.989a1.4 1.4 0 0 0 1.4-1.4v-4.675a2.013 2.013 0 0 0 1.164-1.825zm0 0" class="cls-3" transform="translate(-7.149 -102.485)"/>
                <path id="Path_14064" d="M273.913 108.023a1.958 1.958 0 0 0-.527.083 2.013 2.013 0 0 1 .488 3.639.462.462 0 0 0-.213.393v4.4a1.4 1.4 0 0 1-1.4 1.4h1.139a1.4 1.4 0 0 0 1.4-1.4v-4.678a2.013 2.013 0 0 0-.89-3.837zm0 0" class="cls-4" transform="translate(-259.496 -102.484)"/>
                <path id="Path_14065" d="M76.777 319.551v1.423a.328.328 0 0 0 .328.328h.568a.328.328 0 0 0 .328-.328v-1.423zm0 0" class="cls-5" transform="translate(-73.179 -304.098)"/>
                <path id="Path_14066" d="M255.988 319.551v1.423a.328.328 0 0 0 .328.328h.568a.328.328 0 0 0 .328-.328v-1.423zm0 0" class="cls-5" transform="translate(-243.989 -304.098)"/>
                <path id="Path_14067" d="M93.378 206.5a.692.692 0 0 0 .692.692h6.685a.692.692 0 0 0 .692-.692v-1.832h-8.069zm0 0" class="cls-4" transform="translate(-89.001 -194.596)"/>
                <path id="Path_14068" d="M368.188 171.842v.422a.4.4 0 0 0 .4.4h5.6a.4.4 0 0 0 .4-.4v-.422a.4.4 0 0 0-.4-.4h-5.6a.4.4 0 0 0-.4.4zm0 0" class="cls-6" transform="translate(-350.929 -162.935)"/>
                <path id="Path_14069" fill="#aa4b44" d="M476.676 171.445h-.953a.4.4 0 0 1 .4.4v.422a.4.4 0 0 1-.4.4h.953a.4.4 0 0 0 .4-.4v-.422a.4.4 0 0 0-.4-.4zm0 0" transform="translate(-453.424 -162.934)"/>
                <path id="Path_14070" fill="#ffcd34" d="M384.355 203.2v-5.853h4.874v5.853a.222.222 0 0 1-.222.222h-4.429a.222.222 0 0 1-.223-.222zm0 0" transform="translate(-366.339 -187.623)"/>
                <path id="Path_14071" fill="#e69012" d="M462.98 197.348v5.852a.222.222 0 0 1-.222.222h.976a.222.222 0 0 0 .222-.222v-5.853zm0 0" transform="translate(-441.066 -187.623)"/>
                <path id="Path_14072" d="M392 326.945v1.172a.232.232 0 0 0 .232.233h.52a.232.232 0 0 0 .232-.233v-1.172zm0 0" class="cls-6" transform="translate(-373.625 -311.145)"/>
                <path id="Path_14073" d="M457 326.945v1.172a.232.232 0 0 0 .232.233h.52a.232.232 0 0 0 .232-.233v-1.172zm0 0" class="cls-6" transform="translate(-435.578 -311.145)"/>
                <path id="Path_14074" fill="#c8e7f7" d="M403.363 67.706h-3.187a.287.287 0 0 1-.269-.384l.773-2.129a.286.286 0 0 1 .269-.189h1.642a.287.287 0 0 1 .269.189l.773 2.129a.286.286 0 0 1-.27.384zm0 0" transform="translate(-381.145 -61.483)"/>
                <path id="Path_14075" fill="#8cbcd6" d="M435.362 67.322l-.773-2.128a.287.287 0 0 0-.269-.194h-1.14a.286.286 0 0 1 .269.189l.773 2.128a.286.286 0 0 1-.269.384h1.141a.287.287 0 0 0 .268-.379zm0 0" transform="translate(-412.874 -61.483)"/>
                <path id="Path_14076" d="M16.113 5.862a2.341 2.341 0 0 0-1.638-.676V2.911A2.551 2.551 0 0 0 13.607 1a1.96 1.96 0 0 0-1.581-.482 23.778 23.778 0 0 1-7.23 0A1.959 1.959 0 0 0 3.215 1a2.552 2.552 0 0 0-.867 1.91v2.276a2.336 2.336 0 0 0-.956.209.352.352 0 0 0 .289.641A1.658 1.658 0 0 1 2.4 5.89a1.624 1.624 0 0 1 .233.022h.017a1.7 1.7 0 0 1 1.375 1.679V11.9a1.045 1.045 0 0 0 1.044 1.043h6.685A1.044 1.044 0 0 0 12.8 11.9V7.591a1.69 1.69 0 0 1 1.627-1.7 1.661 1.661 0 0 1 .735 3.167.351.351 0 0 0-.2.319v4.675A1.052 1.052 0 0 1 13.9 15.1H2.917a1.052 1.052 0 0 1-1.051-1.051V9.376a.352.352 0 0 0-.2-.319A1.668 1.668 0 0 1 .7 7.551C.74 6.5 1.695 6.122 1.8 5.9c.084-.175-.326-.679-.41-.5A3.029 3.029 0 0 0 0 7.551a2.375 2.375 0 0 0 1.163 2.036v4.464A1.756 1.756 0 0 0 2.917 15.8h.33v1.071a.68.68 0 0 0 .68.68h.568a.681.681 0 0 0 .68-.68V15.8h6.473v1.071a.681.681 0 0 0 .68.68h.572a.681.681 0 0 0 .68-.68V15.8h.33a1.756 1.756 0 0 0 1.754-1.754V9.587a2.375 2.375 0 0 0 1.164-2.036 2.346 2.346 0 0 0-.71-1.689zM12.094 11.9a.341.341 0 0 1-.34.34H5.069a.341.341 0 0 1-.34-.34v-1.48h7.365zm0-4.309v2.125H4.729V7.591a2.415 2.415 0 0 0-1.678-2.3v-2.38a1.865 1.865 0 0 1 .624-1.378 1.26 1.26 0 0 1 1.019-.32 24.466 24.466 0 0 0 7.436 0 1.26 1.26 0 0 1 1.019.32 1.865 1.865 0 0 1 .624 1.377v2.38a2.415 2.415 0 0 0-1.678 2.3zm-7.623 9.261H3.95V15.8h.521zm8.4 0h-.521V15.8h.521zm0 0" class="cls-12"/>
                <path id="Path_14077" d="M113.348 69.025h-.123V68.9a.352.352 0 0 0-.7 0v.123h-.125a.352.352 0 0 0 0 .7h.123v.123a.352.352 0 0 0 .7 0v-.123h.123a.352.352 0 0 0 0-.7zm0 0" class="cls-12" transform="translate(-106.795 -64.863)"/>
                <path id="Path_14078" d="M212.891 69.025h-.123V68.9a.352.352 0 0 0-.7 0v.123h-.123a.352.352 0 0 0 0 .7h.123v.123a.352.352 0 0 0 .7 0v-.123h.123a.352.352 0 0 0 0-.7zm0 0" class="cls-12" transform="translate(-201.672 -64.863)"/>
                <path id="Path_14079" d="M367.033 62.493h-2.276v-1.585H366a.638.638 0 0 0 .6-.856l-.773-2.129a.64.64 0 0 0-.6-.42h-1.641a.64.64 0 0 0-.6.42l-.773 2.128a.638.638 0 0 0 .6.856h1.242v1.585h-2.619a.748.748 0 0 0-.747.747v.422a.748.748 0 0 0 .747.747h.01v2.079c0 .194.7.194.7 0V64.41h4.171v2.334h-4.171v-.256a.352.352 0 0 0-.7 0v3.422a.575.575 0 0 0 .358.532v.862a.585.585 0 0 0 .584.584h.52a.585.585 0 0 0 .584-.584v-.82h1.359v.82a.585.585 0 0 0 .584.584h.52a.585.585 0 0 0 .584-.584v-.827a.575.575 0 0 0 .484-.567v-5.5h.01a.748.748 0 0 0 .747-.747v-.423a.748.748 0 0 0-.747-.747zm-3.4-4.286h1.55l.725 2h-3zm2.689 9.241v2.334h-4.171v-2.334zm-3.531 3.738h-.281v-.7h.281zm3.047 0h-.281v-.7h.281zm1.242-7.523a.044.044 0 0 1-.044.044h-5.6a.044.044 0 0 1-.044-.044v-.423a.044.044 0 0 1 .044-.044h5.6a.044.044 0 0 1 .044.044zm0 0" class="cls-12" transform="translate(-343.781 -54.334)"/>
                <path id="Path_14080" d="M424.37 210.648a.352.352 0 0 0 0-.7h-.5a.352.352 0 0 0 0 .7zm0 0" class="cls-12" transform="translate(-403.667 -199.63)"/>
                <path id="Path_14081" d="M423.872 275.648h.5a.352.352 0 0 0 0-.7h-.5a.352.352 0 0 0 0 .7zm0 0" class="cls-12" transform="translate(-403.668 -261.583)"/>
            </g>
        </g>
    </g>
</svg>
