<svg id="Home_Services" data-name="Home Services" xmlns="http://www.w3.org/2000/svg" width="28" height="28" viewBox="0 0 28 28">
  <defs>
    <style>
      .cls-1 {
        fill: none;
      }

      .cls-2, .cls-7 {
        fill: #323c6b;
        stroke: #323c6b;
      }

      .cls-2, .cls-8 {
        stroke-width: 0.4px;
      }

      .cls-3 {
        fill: #84879c;
      }

      .cls-4 {
        fill: #bfc9d8;
      }

      .cls-5 {
        fill: #ff5050;
      }

      .cls-6 {
        fill: #d4e1f4;
      }

      .cls-7 {
        stroke-width: 0.2px;
      }

      .cls-8 {
        fill: #333a60;
      }

      .cls-8, .cls-9 {
        stroke: #333a60;
      }

      .cls-9 {
        fill: #fff;
      }

      .cls-10 {
        stroke: none;
      }
    </style>
  </defs>
  <path id="Rectangle_91" data-name="Rectangle 91" class="cls-1" d="M0,0H28V28H0Z"/>
  <g id="vacuum-cleaner" transform="translate(3.916 4.024)">
    <path id="Path_12349" data-name="Path 12349" class="cls-2" d="M25.011,8.135V6.606A1.8,1.8,0,0,1,26.8,4.811h7.912a1.8,1.8,0,0,1,1.792,1.795v9.747a.174.174,0,0,1-.348,0V6.606a1.447,1.447,0,0,0-1.443-1.447H26.8A1.447,1.447,0,0,0,25.36,6.606v1.7a.174.174,0,0,1-.174.174Z" transform="translate(-19.128 -4.811)"/>
    <path id="Path_12350" data-name="Path 12350" class="cls-3" d="M55.749,53.125h.842a.961.961,0,0,1,1,.912v.706H54.746v-.706a.961.961,0,0,1,1-.912Z" transform="translate(-38.911 -42.522)"/>
    <path id="Path_12365" data-name="Path 12365" class="cls-4" d="M1.933,0H7.3a.933.933,0,0,1,.933.933V2.966A.933.933,0,0,1,7.3,3.9H1.933A.933.933,0,0,1,1,2.966V.933A.933.933,0,0,1,1.933,0Z" transform="translate(12.643 12.383)"/>
    <path id="Path_12341" data-name="Path 12341" class="cls-2" d="M52.786,61.989H47.322a1.059,1.059,0,0,1-1.058-1.058V58.8a1.059,1.059,0,0,1,1.058-1.058h5.464A1.059,1.059,0,0,1,53.844,58.8V60.93A1.059,1.059,0,0,1,52.786,61.989Zm-5.464-3.9a.711.711,0,0,0-.71.71V60.93a.711.711,0,0,0,.71.71h5.464a.711.711,0,0,0,.71-.71V58.8a.711.711,0,0,0-.71-.71Z" transform="translate(-32.794 -45.532)"/>
    <path id="Path_12346" data-name="Path 12346" class="cls-3" d="M22.015,20.541v-.967a.82.82,0,0,1,.819-.819h1.109a.82.82,0,0,1,.819.819v.967Z" transform="translate(-17.567 -15.256)"/>
    <path id="Path_12347" data-name="Path 12347" class="cls-2" d="M24.434,20.389H21.686a.174.174,0,0,1-.174-.174v-.967a.994.994,0,0,1,.993-.993h1.109a.994.994,0,0,1,.993.993v.967a.174.174,0,0,1-.173.174Zm-2.575-.348h2.4v-.793a.646.646,0,0,0-.645-.645H22.506a.646.646,0,0,0-.645.645Z" transform="translate(-17.239 -14.931)"/>
    <path id="Path_12356" data-name="Path 12356" class="cls-5" d="M21.027,27.78V37.791A1.724,1.724,0,0,1,19.3,39.513H11.452A1.724,1.724,0,0,1,9.73,37.791V27.78a3.888,3.888,0,0,1,3.893-3.89h3.51a3.888,3.888,0,0,1,3.893,3.89Z" transform="translate(-9.556 -18.605)"/>
    <path id="Path_12358" data-name="Path 12358" class="cls-6" d="M23,24.248v5a3.39,3.39,0,0,1-6.781,0v-5a3.89,3.89,0,0,1,1.635-.358h3.51A3.89,3.89,0,0,1,23,24.248Z" transform="translate(-13.788 -18.605)"/>
    <path id="Path_12359" data-name="Path 12359" class="cls-4" d="M25.7,24.346v5a3.392,3.392,0,0,1-5.34,2.776,3.3,3.3,0,0,0,.95.136A3.392,3.392,0,0,0,24.7,28.862V24.04a3.74,3.74,0,0,1,1,.306Z" transform="translate(-16.488 -18.703)"/>
    <path id="Path_12360" data-name="Path 12360" class="cls-7" d="M23.316,54.831H18.007a.174.174,0,1,1,0-.348h5.309a.174.174,0,1,1,0,.348Z" transform="translate(-14.84 -38.906)"/>
    <path id="Path_12361" data-name="Path 12361" class="cls-7" d="M23.663,59.09H19.145a.174.174,0,0,1,0-.348h4.518a.174.174,0,0,1,0,.348Z" transform="translate(-15.582 -41.684)"/>
    <path id="Path_12362" data-name="Path 12362" class="cls-7" d="M23.316,63.348H18.007a.174.174,0,1,1,0-.348h5.309a.174.174,0,0,1,0,.348Z" transform="translate(-14.84 -44.46)"/>
    <path id="Path_12363" data-name="Path 12363" class="cls-8" d="M18.979,39.363H11.127a1.9,1.9,0,0,1-1.9-1.9V27.454A4.061,4.061,0,0,1,13.3,23.39h3.51a4.062,4.062,0,0,1,4.067,4.064V37.465A1.9,1.9,0,0,1,18.979,39.363ZM13.3,23.738a3.714,3.714,0,0,0-3.719,3.716V37.465a1.55,1.55,0,0,0,1.548,1.55h7.852a1.55,1.55,0,0,0,1.548-1.548V27.454a3.715,3.715,0,0,0-3.719-3.716Z" transform="translate(-9.231 -18.279)"/>
    <path id="Path_12364" data-name="Path 12364" class="cls-7" d="M19.283,32.484a3.569,3.569,0,0,1-3.563-3.566v-5a.174.174,0,0,1,.1-.158,4.049,4.049,0,0,1,1.708-.374h3.51a4.046,4.046,0,0,1,1.708.374.174.174,0,0,1,.1.158v5A3.57,3.57,0,0,1,19.283,32.484Zm-3.215-8.449v4.883a3.216,3.216,0,0,0,6.433,0V24.035a3.7,3.7,0,0,0-1.461-.3h-3.51a3.7,3.7,0,0,0-1.461.3Z" transform="translate(-13.462 -18.279)"/>
    <g id="Ellipse_861" data-name="Ellipse 861" class="cls-9" transform="translate(1.303 19.576)">
      <circle class="cls-10" cx="1.5" cy="1.5" r="1.5"/>
      <circle class="cls-1" cx="1.5" cy="1.5" r="1"/>
    </g>
    <g id="Ellipse_862" data-name="Ellipse 862" class="cls-9" transform="translate(7.665 19.576)">
      <circle class="cls-10" cx="1.5" cy="1.5" r="1.5"/>
      <circle class="cls-1" cx="1.5" cy="1.5" r="1"/>
    </g>
  </g>
</svg>
